# xmcd
# 
# Track frame offsets:
#     150
#     41690
#     78338
#     106145
#     141755
#     160985
# 
# Disc length: 2582
# 
# Revision: 1
# Processed by: cddbd v1.5.2PL0 Copyright (c) Steve Scherf et al.
# Submitted via: BonkEnc v1.0.8
# 
DISCID=440a1406
DTITLE=Dave Liebman, Mike Nock, Ron McClure, Ed Soph - The Opal Heart
DYEAR=1979
DGENRE=Contemporary Jazz
TTITLE0=Sunburst
TTITLE1=Port Ligat
TTITLE2=The Opal hearted aborigine
TTITLE3=I concentrate on you
TTITLE4=Star crossed lovers
TTITLE5=Down under
EXTD=YEAR: 1979
EXTT0=
EXTT1=
EXTT2=
EXTT3=
EXTT4=
EXTT5=
PLAYORDER=
